<?xml version="1.0" standalone="no"?>
<!DOCTYPE svg PUBLIC "-//W3C//DTD SVG 20010904//EN"
 "http://www.w3.org/TR/2001/REC-SVG-20010904/DTD/svg10.dtd">
<svg version="1.0" xmlns="http://www.w3.org/2000/svg"
 width="768.000000pt" height="677.000000pt" viewBox="0 0 768.000000 677.000000"
 preserveAspectRatio="xMidYMid meet">
<metadata>
Created by potrace 1.16, written by Peter Selinger 2001-2019
</metadata>
<g transform="translate(0.000000,677.000000) scale(0.100000,-0.100000)"
fill="#DD6B20" stroke="none">
<path d="M3643 6753 c-18 -9 -33 -20 -33 -25 0 -4 -7 -5 -15 -2 -8 4 -15 1
-15 -5 0 -6 -7 -11 -15 -11 -8 0 -15 -7 -15 -15 0 -9 -10 -19 -23 -24 -19 -8
-73 -64 -127 -135 -13 -18 -13 -19 0 -12 13 7 13 6 0 -6 -8 -7 -16 -19 -18
-27 -1 -7 -9 -20 -18 -28 -8 -8 -22 -29 -31 -46 -9 -18 -19 -34 -23 -37 -15
-11 -31 -51 -24 -62 4 -6 3 -8 -3 -5 -5 3 -24 -19 -41 -49 -17 -30 -26 -52
-20 -48 6 4 0 -8 -14 -27 -14 -19 -39 -59 -57 -89 -18 -30 -45 -77 -61 -103
-17 -26 -29 -51 -28 -55 2 -8 -21 -54 -32 -62 -14 -10 -70 -118 -70 -134 0 -9
-12 -29 -27 -43 -16 -15 -21 -23 -13 -19 8 4 6 0 -4 -8 -11 -9 -17 -16 -13
-16 4 0 -13 -30 -36 -67 -70 -109 -100 -166 -86 -159 8 4 5 0 -5 -8 -11 -9
-16 -16 -10 -16 5 0 1 -5 -9 -11 -9 -6 -15 -14 -12 -19 3 -6 1 -15 -5 -22 -35
-40 -90 -139 -84 -150 4 -7 4 -10 -1 -6 -12 11 -38 -29 -29 -45 4 -6 3 -9 -1
-5 -5 5 -31 -34 -58 -85 -27 -50 -56 -100 -64 -109 -8 -9 -12 -22 -7 -29 5 -8
3 -10 -6 -4 -10 6 -12 4 -7 -7 3 -9 -1 -24 -9 -35 -14 -17 -14 -16 -4 5 6 12
8 22 5 22 -2 0 -20 -30 -38 -67 -19 -38 -48 -92 -66 -121 -17 -29 -28 -58 -25
-64 4 -7 2 -8 -4 -4 -7 4 -12 2 -12 -3 0 -22 -2 -26 -17 -34 -8 -5 -28 -37
-44 -70 -16 -34 -45 -88 -64 -121 -19 -32 -32 -63 -28 -69 3 -6 1 -7 -5 -3 -7
4 -13 2 -13 -3 -1 -6 -3 -15 -4 -21 -1 -5 -3 -15 -4 -21 0 -5 -6 -7 -13 -3 -6
4 -8 3 -5 -3 6 -9 -35 -82 -71 -128 -27 -35 -62 -107 -56 -117 4 -6 3 -8 -2
-5 -5 3 -17 -8 -27 -24 -9 -17 -12 -27 -7 -24 6 3 7 -1 4 -9 -3 -9 -9 -16 -13
-16 -5 0 -20 -24 -36 -52 -15 -29 -34 -61 -42 -70 -8 -9 -12 -22 -7 -29 5 -8
3 -10 -6 -4 -10 6 -12 4 -7 -7 3 -9 -1 -24 -9 -35 -14 -17 -14 -16 -4 5 6 12
8 22 6 22 -7 0 -51 -82 -51 -95 0 -5 -3 -12 -6 -15 -12 -11 -90 -152 -94 -170
-4 -22 -24 -60 -31 -60 -2 0 0 9 6 20 6 11 8 20 5 20 -3 0 -15 -21 -27 -47
-11 -27 -41 -80 -65 -120 -26 -41 -41 -77 -37 -84 4 -8 3 -9 -4 -5 -7 4 -13 2
-13 -3 -1 -6 -3 -15 -4 -21 -1 -5 -3 -15 -4 -21 0 -5 -5 -7 -11 -4 -6 3 -7 -1
-4 -9 4 -9 -1 -18 -10 -22 -9 -3 -13 -10 -10 -15 3 -5 1 -9 -4 -9 -5 0 -15
-14 -22 -31 -7 -17 -18 -36 -24 -42 -24 -25 -56 -89 -50 -99 4 -6 2 -8 -4 -4
-9 5 -29 -32 -23 -42 1 -2 -6 -10 -16 -19 -11 -9 -12 -12 -3 -8 9 4 8 1 -3 -8
-10 -9 -19 -19 -19 -24 -1 -8 -12 -28 -56 -98 -55 -85 -92 -157 -86 -166 3 -5
1 -9 -5 -9 -5 0 -13 -10 -17 -22 -4 -13 -10 -25 -14 -28 -11 -8 -72 -120 -65
-120 3 0 -1 -13 -10 -30 -9 -16 -18 -30 -21 -30 -2 0 0 9 6 21 7 11 10 23 7
25 -4 4 -42 -74 -42 -88 0 -4 -7 -15 -15 -25 -25 -29 -90 -150 -90 -167 0 -9
-9 -25 -19 -35 -11 -11 -17 -22 -13 -25 3 -3 -1 -6 -8 -6 -7 0 -10 -3 -7 -6 4
-4 -6 -23 -22 -43 -41 -53 -82 -132 -74 -144 3 -5 2 -8 -3 -4 -5 3 -20 -13
-33 -35 -13 -24 -17 -38 -9 -33 7 3 4 -1 -6 -9 -11 -9 -17 -16 -13 -16 5 0 3
-6 -3 -12 -20 -24 -83 -133 -83 -145 0 -7 -4 -13 -8 -13 -13 0 -49 -76 -41
-85 4 -5 1 -5 -5 -1 -7 4 -13 2 -13 -3 0 -22 -2 -26 -14 -41 -7 -8 -29 -44
-50 -80 -20 -36 -52 -90 -71 -120 -19 -30 -34 -63 -35 -72 0 -9 -6 -23 -13
-30 -19 -19 -98 -160 -86 -152 7 4 7 -1 0 -15 -7 -11 -15 -21 -20 -21 -4 0 -8
-6 -8 -12 0 -7 -21 -44 -47 -83 -60 -88 -97 -160 -88 -170 4 -5 1 -5 -5 -1
-12 6 -18 -5 -14 -26 0 -5 -4 -8 -10 -8 -5 0 -8 -4 -5 -9 3 -4 -3 -19 -14 -32
-32 -39 -34 -42 -57 -89 -18 -39 -22 -64 -23 -182 -1 -135 0 -137 30 -190 16
-29 46 -64 65 -78 19 -14 35 -31 35 -37 0 -7 4 -13 10 -13 5 0 31 -13 57 -30
l47 -30 3611 0 3611 0 69 43 c58 36 76 54 108 108 l37 64 -1 137 c0 81 -5 138
-11 138 -5 0 -7 4 -4 8 6 11 -39 99 -66 129 -12 12 -17 27 -13 34 5 8 4 10 -3
5 -11 -6 -16 6 -13 27 0 4 -3 7 -9 7 -6 0 -9 3 -9 8 4 21 -2 32 -13 26 -7 -4
-10 -4 -6 1 9 9 -11 50 -61 125 -19 30 -36 59 -36 65 0 13 -34 75 -41 75 -2 0
0 -9 6 -20 6 -11 8 -20 6 -20 -7 0 -27 38 -31 60 -5 26 -77 150 -88 150 -4 0
-6 4 -3 9 6 8 -41 101 -50 101 -3 0 -2 -5 2 -12 4 -7 3 -8 -4 -4 -6 4 -8 14
-5 23 5 12 3 14 -7 8 -9 -6 -11 -4 -6 4 5 7 2 20 -6 29 -8 9 -27 40 -43 67
-16 28 -32 52 -36 55 -4 3 -9 12 -11 20 -2 8 -10 21 -18 28 -11 10 -11 11 -1
6 10 -5 9 2 -4 24 -10 17 -22 29 -27 26 -4 -3 -6 1 -3 8 3 7 -11 38 -31 68
-20 30 -43 68 -51 85 -9 16 -23 35 -31 41 -9 7 -12 16 -7 24 5 9 4 11 -3 6 -7
-4 -13 -2 -13 3 -1 6 -3 16 -4 21 -1 6 -3 15 -4 21 0 5 -7 7 -13 3 -7 -4 -10
-4 -6 1 8 9 -24 76 -58 122 -13 17 -24 38 -24 45 0 7 -14 36 -31 63 -17 28
-28 41 -24 30 4 -14 3 -17 -5 -9 -6 6 -12 21 -15 33 -2 12 -21 53 -42 89 -21
37 -47 84 -58 104 -10 20 -22 35 -27 32 -4 -3 -6 1 -3 8 4 11 -55 111 -117
201 -7 10 -12 23 -11 28 2 5 -2 9 -7 9 -5 0 -9 3 -9 8 3 20 -2 32 -13 26 -6
-4 -8 -3 -4 4 6 11 -24 67 -82 153 -18 26 -32 52 -32 58 0 6 -5 11 -12 11 -6
0 -8 3 -5 7 4 3 0 11 -8 17 -9 6 -17 21 -20 34 -2 13 -26 60 -53 105 -27 45
-54 97 -62 115 -7 18 -17 35 -23 39 -6 4 -7 1 -2 -7 5 -9 4 -11 -4 -6 -6 4 -8
12 -5 18 4 5 -2 22 -13 36 -11 15 -34 54 -53 87 -18 33 -40 68 -49 79 -9 10
-15 20 -13 22 7 12 0 24 -10 18 -7 -4 -10 -4 -6 1 8 9 -10 47 -57 120 -51 81
-62 100 -63 108 0 5 -8 14 -17 21 -14 10 -21 28 -24 59 -1 5 -6 5 -13 1 -7 -4
-8 -3 -4 4 4 6 -12 42 -35 79 -23 37 -49 81 -58 98 -9 16 -23 36 -31 43 -13
12 -13 13 0 7 8 -4 6 1 -4 9 -11 9 -16 16 -11 16 5 0 0 7 -11 16 -10 8 -13 13
-7 9 14 -6 -57 121 -94 171 -13 17 -21 33 -18 36 3 2 -11 31 -31 64 -20 32
-52 86 -72 119 -19 33 -39 63 -44 66 -8 5 -15 25 -17 52 -1 5 -6 5 -13 1 -7
-4 -8 -3 -4 4 4 6 -12 42 -35 79 -23 37 -51 84 -63 103 -11 19 -24 37 -28 38
-5 2 -6 8 -2 13 3 5 1 9 -5 9 -6 0 -15 10 -22 21 -7 15 -8 19 0 15 6 -4 3 6
-6 23 -10 16 -22 27 -27 24 -5 -3 -6 -1 -2 5 7 11 -19 60 -66 126 -15 21 -28
47 -28 57 0 10 -5 21 -12 25 -7 5 -8 3 -3 -6 5 -8 4 -11 -3 -6 -6 4 -9 13 -6
21 3 7 -4 18 -16 25 -11 6 -20 16 -18 23 1 7 -15 41 -35 77 -43 73 -42 73 -85
155 -18 33 -37 59 -43 57 -6 -1 -7 2 -4 8 4 6 0 19 -8 28 -8 9 -24 36 -36 58
-11 23 -27 49 -36 58 -9 9 -18 25 -20 36 -6 32 -38 79 -48 73 -6 -3 -7 -1 -3
6 5 7 -9 38 -32 74 -23 34 -46 74 -53 90 -7 15 -17 27 -22 27 -6 0 -7 3 -4 7
4 3 -1 12 -11 20 -9 8 -11 12 -5 8 7 -3 -10 31 -37 77 -27 46 -63 111 -79 145
-16 33 -38 66 -48 72 -10 6 -14 11 -9 11 6 0 1 7 -10 16 -10 8 -13 13 -6 9 6
-3 -3 20 -22 52 -18 32 -50 90 -71 128 -36 68 -69 115 -46 65 11 -23 11 -24
-3 -6 -9 10 -13 23 -10 28 19 30 -255 285 -280 261 -3 -4 -6 -2 -6 4 0 8 -48
11 -142 12 -113 0 -150 -3 -175 -16z m197 -597 c8 -12 14 -24 12 -28 -1 -5 3
-8 10 -8 6 0 8 -3 5 -7 -4 -3 0 -11 8 -17 9 -6 17 -21 20 -34 2 -13 26 -60 53
-105 27 -45 52 -92 56 -105 4 -12 12 -20 17 -17 5 3 6 0 3 -8 -3 -8 0 -18 7
-23 8 -5 10 -3 4 6 -5 9 -4 11 4 6 6 -4 8 -12 5 -18 -4 -5 2 -22 13 -36 11
-15 34 -54 53 -87 19 -33 38 -63 43 -66 5 -3 8 -9 8 -13 -3 -20 0 -26 11 -20
7 4 8 3 4 -4 -9 -15 18 -55 29 -44 5 4 5 1 1 -5 -7 -12 34 -94 61 -121 7 -7
13 -17 13 -22 0 -5 12 -22 26 -39 14 -17 22 -36 18 -42 -4 -8 -3 -9 4 -5 7 4
13 2 13 -3 1 -6 3 -15 4 -21 1 -5 3 -15 4 -21 0 -5 6 -7 13 -3 6 4 8 3 4 -4
-3 -6 12 -40 34 -77 22 -36 40 -67 40 -70 0 -3 7 -13 15 -22 8 -10 15 -22 14
-26 0 -5 8 -15 18 -24 10 -8 11 -11 3 -7 -8 4 -3 -4 13 -19 15 -14 27 -33 27
-42 0 -17 36 -85 74 -140 12 -16 21 -32 21 -35 3 -22 18 -49 26 -45 5 3 6 0 3
-8 -3 -8 0 -18 7 -23 8 -5 10 -3 4 6 -5 8 -4 11 3 6 6 -4 8 -14 5 -23 -4 -11
-3 -14 5 -9 8 5 10 1 5 -10 -4 -10 -2 -15 4 -11 5 3 10 1 10 -6 0 -7 12 -31
26 -55 15 -23 25 -42 22 -42 -6 0 4 -13 33 -45 7 -8 13 -18 12 -22 0 -20 12
-43 21 -37 5 3 8 2 7 -3 -4 -16 14 -53 23 -48 5 3 6 -2 2 -11 -5 -13 -3 -15 7
-9 8 5 11 4 7 -2 -4 -6 5 -28 20 -49 14 -22 35 -58 45 -82 11 -23 23 -40 28
-37 9 6 24 -29 29 -66 0 -5 5 -7 11 -4 6 4 7 -1 3 -11 -5 -13 -3 -15 8 -9 8 4
11 5 7 0 -8 -9 12 -52 53 -112 16 -23 29 -49 29 -58 0 -8 16 -31 35 -51 34
-33 45 -52 25 -39 -11 7 67 -132 89 -158 9 -11 16 -24 16 -30 0 -15 43 -97 51
-97 2 0 -1 10 -7 23 -9 17 -9 20 1 10 7 -6 13 -20 14 -30 1 -19 83 -164 98
-174 8 -5 15 -25 17 -52 1 -5 6 -5 13 -1 7 4 8 3 4 -4 -8 -14 18 -55 28 -45 4
4 5 1 2 -7 -4 -9 18 -51 48 -97 30 -45 51 -84 48 -87 -3 -3 0 -6 6 -6 6 0 16
-10 23 -21 7 -15 8 -19 0 -15 -6 4 -3 -6 6 -23 10 -16 22 -27 27 -24 5 3 6 1
2 -5 -3 -6 7 -32 24 -59 16 -26 42 -73 56 -103 14 -30 37 -66 52 -79 15 -13
21 -20 14 -16 -8 4 0 -17 18 -46 17 -30 39 -69 47 -86 9 -18 20 -33 25 -33 4
0 8 -7 8 -16 0 -8 12 -35 26 -60 27 -45 44 -61 23 -22 -9 18 -9 21 1 11 7 -6
14 -22 15 -35 3 -22 60 -123 88 -157 22 -26 32 -45 19 -37 -7 4 -3 -8 8 -28
12 -19 27 -37 35 -40 8 -3 12 -11 10 -18 -3 -7 20 -51 51 -98 31 -47 57 -90
57 -97 0 -7 7 -15 14 -17 8 -3 12 -10 9 -15 -6 -9 59 -130 75 -141 4 -3 21
-36 38 -73 17 -37 37 -70 46 -73 8 -3 12 -10 9 -15 -3 -5 -1 -9 4 -9 5 0 9 -6
9 -12 0 -7 22 -49 47 -93 25 -44 49 -88 52 -98 3 -9 10 -15 15 -11 5 3 9 2 8
-3 -4 -21 2 -34 13 -27 7 4 8 3 4 -5 -5 -7 10 -40 35 -79 57 -90 66 -105 68
-117 1 -5 9 -14 17 -18 8 -5 12 -12 9 -18 -8 -12 20 -51 29 -42 4 4 4 -1 0
-11 -6 -15 -4 -17 7 -11 8 4 11 5 7 0 -7 -7 13 -55 33 -79 26 -32 82 -123 82
-133 0 -7 4 -13 9 -13 4 0 7 -3 7 -7 -4 -22 2 -33 14 -27 6 4 9 4 5 -1 -8 -8
54 -129 79 -153 7 -7 13 -21 13 -30 1 -22 25 -54 34 -45 4 4 4 0 1 -9 -4 -11
2 -26 19 -43 14 -14 23 -25 20 -25 -2 0 0 -9 6 -20 11 -20 8 -20 -3220 -20
l-3231 0 21 31 c12 16 20 33 16 36 -5 6 21 63 30 63 2 0 -2 -13 -11 -30 -9
-16 -13 -30 -10 -30 8 0 46 80 38 80 -5 0 0 5 10 11 9 5 17 14 17 20 0 5 20
45 45 89 25 43 48 89 50 101 3 12 10 27 16 33 9 8 10 8 5 -1 -4 -7 -5 -13 -2
-13 3 0 12 14 21 30 9 17 13 30 9 30 -3 0 5 15 18 33 40 53 78 128 71 140 -3
5 -2 7 3 4 5 -3 17 8 27 24 9 17 12 27 6 23 -8 -4 -7 0 0 15 7 11 16 21 22 21
6 0 7 4 4 10 -3 5 -2 10 2 10 5 0 19 19 31 43 13 23 34 60 47 82 13 21 21 43
18 49 -3 5 -1 6 5 2 10 -6 28 30 24 47 -1 5 3 5 9 1 9 -5 10 -2 6 10 -4 10 -3
15 3 11 6 -3 10 -3 11 2 2 26 9 47 16 52 5 3 24 32 42 63 18 32 37 60 42 64 5
3 7 14 4 24 -3 10 -1 21 4 25 7 4 9 -1 5 -12 -5 -17 -5 -17 6 0 6 9 8 23 4 30
-4 6 -4 9 1 5 11 -11 38 29 29 44 -4 6 -3 8 3 5 6 -4 14 5 18 20 3 16 10 30
14 33 14 10 81 132 76 139 -2 5 2 17 11 27 14 18 15 18 4 -3 -16 -35 -3 -27
16 8 12 23 12 30 2 25 -7 -4 -3 1 10 10 12 9 22 24 22 34 0 9 8 28 19 41 31
40 101 170 88 164 -6 -4 -4 0 5 8 10 8 15 17 11 20 -3 4 -1 7 6 7 7 0 10 4 7
9 -3 5 4 21 16 36 42 54 118 188 111 198 -4 6 -1 7 7 2 10 -6 12 -4 7 9 -4 10
-3 15 3 11 6 -3 10 -3 11 2 2 27 9 44 22 58 9 8 19 24 22 35 3 11 11 20 16 20
5 0 9 6 9 14 0 7 9 25 20 39 11 14 17 32 14 40 -3 8 -1 18 5 22 7 4 9 -1 5
-12 -5 -17 -5 -17 6 0 6 9 9 21 5 26 -3 5 0 13 6 17 8 5 9 3 4 -6 -6 -9 -4
-11 4 -6 7 5 10 15 6 24 -3 9 -3 13 1 9 8 -8 114 184 114 207 0 8 5 18 12 22
7 5 9 2 4 -7 -4 -8 0 -5 8 6 9 11 14 25 12 32 -3 7 0 15 6 19 7 5 8 2 3 -6 -6
-9 -4 -11 4 -6 7 5 10 15 7 23 -3 8 -1 11 4 8 5 -3 13 7 16 22 4 15 17 42 29
58 36 50 87 147 73 140 -7 -3 -6 -1 3 7 16 13 19 19 19 39 0 5 5 7 12 3 6 -4
8 -3 4 4 -3 6 13 39 38 74 54 79 87 143 78 153 -4 5 -2 5 5 1 12 -6 27 24 32
65 0 5 5 7 11 4 6 -3 7 1 4 9 -3 9 -2 16 3 16 5 0 20 19 33 43 13 23 27 44 30
47 15 11 30 51 24 62 -5 7 -3 8 6 3 10 -6 12 -4 7 8 -3 9 -1 19 5 23 7 5 8 2
3 -6 -6 -9 -4 -11 4 -6 7 5 10 15 7 23 -3 8 -2 11 4 8 5 -3 14 12 20 34 6 22
14 41 18 43 12 4 85 130 85 145 0 7 5 9 10 6 6 -4 8 1 4 11 -4 10 -3 15 3 11
12 -8 33 32 24 48 -4 6 -3 9 1 4 5 -4 18 12 30 35 12 24 36 68 53 98 17 30 28
58 25 64 -3 5 -1 6 5 2 11 -6 16 6 13 27 0 4 4 7 11 7 6 0 9 3 5 6 -6 7 19 64
29 64 3 0 2 -4 -1 -10 -3 -5 -4 -10 -1 -10 3 0 14 19 26 43 11 23 34 64 50 92
16 27 26 54 23 59 -4 5 -1 6 7 1 10 -6 12 -4 7 9 -4 10 -3 15 3 11 5 -3 14 12
20 34 6 22 18 44 26 49 9 5 15 12 15 16 -1 6 6 18 64 111 54 87 88 148 77 141
-6 -4 3 15 21 42 82 125 148 242 142 252 -3 4 2 13 10 20 19 16 85 134 90 162
3 12 17 32 31 43 18 14 24 26 19 35 -5 9 -4 11 3 6 7 -4 12 0 12 10 0 9 15 40
33 68 57 88 90 149 76 142 -8 -4 -7 -2 2 6 16 13 19 19 19 39 0 5 4 7 10 4 6
-3 7 1 4 9 -3 9 -2 16 3 16 5 0 17 15 27 33 10 17 34 56 53 85 19 28 31 57 27
64 -5 7 -3 8 6 3 9 -6 12 -4 8 7 -9 23 25 18 42 -6z"/>
<path d="M3680 4731 c0 -4 -10 -8 -22 -8 -13 -1 -24 -7 -26 -13 -2 -5 -8 -8
-13 -4 -5 3 -9 0 -9 -6 0 -6 -4 -9 -9 -5 -5 3 -16 -2 -24 -10 -9 -8 -20 -15
-25 -15 -5 0 -17 -9 -27 -20 -10 -11 -24 -20 -30 -20 -27 0 -141 -136 -176
-210 l-37 -75 2 -162 c0 -89 4 -165 8 -169 4 -4 5 -18 2 -30 -4 -13 -3 -32 1
-41 4 -10 7 -30 6 -45 -1 -14 3 -29 8 -33 6 -3 9 -16 6 -28 -3 -12 -1 -44 5
-72 6 -27 11 -60 11 -73 -1 -13 3 -31 9 -41 6 -12 5 -22 -1 -28 -8 -8 -8 -17
0 -31 6 -11 11 -33 11 -47 0 -14 5 -35 10 -45 6 -12 6 -21 1 -25 -6 -3 -4 -17
5 -33 8 -16 10 -28 4 -30 -13 -5 -13 -32 0 -32 5 0 12 -17 15 -37 3 -21 8 -49
11 -61 3 -15 1 -21 -6 -17 -6 3 -10 -3 -10 -15 0 -12 4 -19 9 -16 5 3 11 -5
13 -19 3 -13 1 -22 -3 -19 -5 3 -9 -7 -8 -23 0 -25 1 -26 9 -8 5 11 9 17 9 13
1 -4 8 -58 17 -119 8 -62 12 -130 9 -152 -5 -29 -4 -38 5 -32 9 5 10 -5 5 -39
-5 -32 -4 -46 4 -46 7 0 9 -9 5 -25 -3 -14 -3 -33 1 -42 5 -10 7 -28 6 -40 -1
-13 1 -28 5 -35 4 -6 9 -39 11 -72 2 -34 6 -68 10 -76 3 -8 5 -23 4 -32 -1
-10 2 -26 8 -36 6 -12 6 -23 1 -28 -6 -6 -4 -20 4 -36 10 -18 11 -28 4 -30 -7
-3 -7 -11 1 -27 7 -13 10 -34 7 -47 -4 -15 0 -34 11 -51 10 -15 12 -24 6 -20
-8 5 -13 3 -13 -7 0 -9 5 -16 11 -16 7 0 9 -10 5 -27 -5 -22 -4 -25 4 -13 9
12 11 9 7 -12 -2 -16 0 -28 4 -28 5 0 5 -7 2 -17 -4 -10 -2 -14 4 -10 5 4 15
-5 22 -19 9 -20 9 -24 -1 -18 -13 9 17 -42 37 -63 39 -38 108 -93 118 -93 7 0
6 4 -3 11 -11 8 -9 8 10 2 32 -10 168 -10 200 0 19 6 21 6 10 -2 -9 -7 -10
-11 -3 -11 17 0 125 96 148 133 11 17 14 28 7 23 -9 -6 -10 -2 -1 18 7 14 15
23 19 21 12 -7 19 18 13 47 -3 15 2 31 11 41 19 18 21 37 5 37 -7 0 -4 10 6
26 11 17 14 29 7 36 -7 7 -6 21 3 42 7 17 10 36 8 43 -2 7 1 22 7 34 9 17 9
23 -1 29 -10 7 -9 13 3 32 10 16 13 30 8 38 -5 8 -5 19 1 26 5 6 10 41 11 77
2 37 7 67 11 67 5 0 8 15 6 33 -1 17 2 40 6 50 4 9 5 26 2 37 -3 11 -1 23 5
26 6 4 7 25 4 53 -5 35 -4 42 4 31 8 -11 10 -3 5 35 -3 28 1 95 10 152 8 57
15 106 16 110 0 5 4 -1 9 -12 8 -18 9 -17 9 8 1 15 -3 27 -8 27 -5 0 -7 9 -4
20 3 11 9 20 14 20 5 0 9 10 9 23 0 18 -2 19 -11 7 -8 -12 -9 -10 -5 10 3 14
6 36 7 50 l1 25 9 -25 c6 -18 7 -14 3 18 -4 29 -2 42 6 42 8 0 10 9 6 25 -4
14 -3 31 1 38 4 7 8 37 9 68 0 31 4 62 9 69 4 7 9 31 11 54 2 22 5 64 8 93 2
28 7 56 10 61 3 5 7 39 8 75 2 37 7 67 11 67 5 0 8 15 7 33 -1 17 -1 34 0 37
2 3 4 82 5 175 l3 170 -34 73 c-19 39 -39 72 -44 72 -6 0 -10 5 -10 12 0 15
-110 128 -125 128 -6 0 -26 13 -45 30 -18 16 -37 27 -41 24 -5 -3 -9 0 -9 6 0
6 -4 8 -10 5 -5 -3 -10 -2 -10 3 0 12 -56 33 -64 25 -3 -4 -6 -2 -6 4 0 6 -60
10 -160 10 -88 0 -160 -3 -160 -6z"/>
<path d="M3787 1669 c-10 -6 -21 -8 -24 -5 -3 3 -12 -2 -21 -10 -8 -9 -23 -13
-34 -11 -10 3 -16 2 -13 -3 3 -4 -2 -11 -11 -14 -9 -4 -13 -2 -8 5 4 8 0 7
-15 0 -11 -7 -21 -16 -21 -22 0 -6 -4 -8 -9 -4 -5 3 -16 -4 -24 -15 -7 -11
-16 -17 -19 -14 -10 9 -79 -80 -110 -144 -29 -58 -31 -69 -31 -175 0 -94 4
-120 23 -164 12 -28 30 -59 41 -69 10 -9 19 -22 19 -29 0 -6 14 -24 32 -41 17
-16 28 -22 23 -14 -4 8 4 2 19 -15 14 -16 25 -27 26 -22 0 4 9 -2 20 -13 12
-12 25 -18 30 -15 10 6 62 -15 72 -30 5 -6 8 -5 8 4 0 11 3 11 16 0 22 -18 95
-20 122 -3 17 11 22 12 22 2 0 -9 3 -9 8 -2 9 14 74 39 90 36 7 -2 15 4 18 12
3 9 10 14 14 11 5 -3 16 5 24 17 9 12 16 18 16 13 0 -4 11 2 25 15 14 13 25
29 25 36 0 6 6 14 14 17 8 3 29 35 46 71 31 63 33 72 33 181 0 108 -2 118 -31
177 -31 64 -100 153 -110 144 -3 -3 -12 3 -19 14 -8 11 -19 18 -24 15 -5 -4
-9 -2 -9 4 0 6 -10 15 -21 22 -15 7 -19 8 -15 0 5 -7 1 -9 -8 -5 -9 3 -14 10
-11 14 3 5 -3 6 -13 3 -11 -2 -26 3 -36 12 -9 9 -16 11 -16 5 0 -7 -8 -5 -22
4 -26 18 -84 20 -111 5z"/>
</g>
</svg>
